<svg xmlns="http://www.w3.org/2000/svg" viewBox="0 0 64 64" width="32" height="32">
  <!-- 灯泡外框 -->
  <path d="M32 4C22 4 14 12 14 22c0 6 3 11 7 14v4h-2v4h26v-4h-2v-4c4-3 7-8 7-14C50 12 42 4 32 4z" fill="#FFD166" stroke="#2B2B2B" stroke-width="2.5" stroke-linejoin="round"/>
  <!-- 灯丝 -->
  <path d="M26 22 Q32 14 38 22" fill="none" stroke="#2B2B2B" stroke-width="2" stroke-linecap="round"/>
  <!-- 光晕 -->
  <circle cx="32" cy="18" r="6" fill="#FFF9E6" opacity="0.6"/>
  <!-- 底座 -->
  <rect x="24" y="44" width="16" height="6" rx="2" fill="#8B7355" stroke="#2B2B2B" stroke-width="2"/>
  <rect x="26" y="50" width="12" height="4" rx="1" fill="#6B5344" stroke="#2B2B2B" stroke-width="1.5"/>
  <!-- 高光 -->
  <path d="M24 14 Q28 10 30 16" fill="none" stroke="#FFF" stroke-width="1.5" stroke-linecap="round" opacity="0.7"/>
</svg>
